<svg xmlns="http://www.w3.org/2000/svg" xmlns:xlink="http://www.w3.org/1999/xlink" width="1024" zoomAndPan="magnify" viewBox="0 0 768 767.999994" height="1024" preserveAspectRatio="xMidYMid meet" version="1.0"><path fill="#000000" d="M 321.097656 767.914062 L 258.09375 767.914062 C 257.625 767.914062 257.160156 767.867188 256.699219 767.773438 C 256.238281 767.683594 255.789062 767.546875 255.355469 767.363281 C 254.921875 767.183594 254.511719 766.960938 254.121094 766.699219 C 253.730469 766.4375 253.367188 766.140625 253.035156 765.808594 C 252.703125 765.476562 252.40625 765.113281 252.148438 764.722656 C 251.886719 764.332031 251.667969 763.917969 251.488281 763.484375 C 251.308594 763.050781 251.171875 762.601562 251.078125 762.140625 C 250.988281 761.679688 250.941406 761.214844 250.941406 760.742188 C 250.941406 760.273438 250.988281 759.808594 251.078125 759.347656 C 251.171875 758.886719 251.308594 758.4375 251.488281 758.003906 C 251.667969 757.570312 251.886719 757.15625 252.148438 756.765625 C 252.40625 756.375 252.703125 756.011719 253.035156 755.679688 C 253.367188 755.347656 253.730469 755.046875 254.121094 754.785156 C 254.511719 754.523438 254.921875 754.304688 255.355469 754.121094 C 255.789062 753.941406 256.238281 753.804688 256.699219 753.710938 C 257.160156 753.621094 257.625 753.574219 258.09375 753.570312 L 313.921875 753.570312 L 313.921875 424.382812 C 313.921875 423.910156 313.96875 423.445312 314.0625 422.980469 C 314.152344 422.519531 314.289062 422.070312 314.46875 421.636719 C 314.648438 421.199219 314.871094 420.789062 315.132812 420.394531 C 315.394531 420.003906 315.691406 419.640625 316.023438 419.308594 C 316.359375 418.976562 316.71875 418.679688 317.113281 418.417969 C 317.503906 418.15625 317.917969 417.933594 318.351562 417.753906 C 318.789062 417.574219 319.234375 417.4375 319.699219 417.34375 C 320.160156 417.253906 320.625 417.207031 321.097656 417.207031 C 321.566406 417.207031 322.035156 417.253906 322.496094 417.34375 C 322.957031 417.4375 323.40625 417.574219 323.84375 417.753906 C 324.277344 417.933594 324.691406 418.15625 325.082031 418.417969 C 325.472656 418.679688 325.835938 418.976562 326.171875 419.308594 C 326.503906 419.640625 326.800781 420.003906 327.0625 420.394531 C 327.324219 420.789062 327.542969 421.199219 327.726562 421.636719 C 327.90625 422.070312 328.042969 422.519531 328.132812 422.980469 C 328.226562 423.445312 328.269531 423.910156 328.269531 424.382812 L 328.269531 760.742188 C 328.269531 761.214844 328.226562 761.679688 328.132812 762.144531 C 328.039062 762.605469 327.90625 763.054688 327.722656 763.488281 C 327.542969 763.921875 327.324219 764.335938 327.0625 764.730469 C 326.800781 765.121094 326.5 765.480469 326.167969 765.816406 C 325.835938 766.148438 325.472656 766.445312 325.082031 766.707031 C 324.691406 766.96875 324.277344 767.191406 323.839844 767.371094 C 323.40625 767.550781 322.957031 767.6875 322.496094 767.777344 C 322.035156 767.871094 321.566406 767.914062 321.097656 767.914062 Z M 321.097656 767.914062 " fill-opacity="1" fill-rule="nonzero"/><path fill="#000000" d="M 512.296875 767.914062 L 449.289062 767.914062 C 448.820312 767.914062 448.351562 767.871094 447.890625 767.777344 C 447.429688 767.6875 446.980469 767.550781 446.546875 767.371094 C 446.109375 767.191406 445.695312 766.96875 445.304688 766.707031 C 444.914062 766.445312 444.550781 766.148438 444.21875 765.816406 C 443.882812 765.480469 443.585938 765.121094 443.324219 764.726562 C 443.0625 764.335938 442.84375 763.921875 442.664062 763.488281 C 442.480469 763.054688 442.347656 762.605469 442.253906 762.144531 C 442.164062 761.679688 442.117188 761.214844 442.117188 760.742188 L 442.117188 424.382812 C 442.117188 423.910156 442.160156 423.445312 442.253906 422.980469 C 442.347656 422.519531 442.480469 422.070312 442.660156 421.636719 C 442.84375 421.203125 443.0625 420.789062 443.324219 420.394531 C 443.585938 420.003906 443.882812 419.640625 444.21875 419.308594 C 444.550781 418.976562 444.910156 418.679688 445.304688 418.417969 C 445.695312 418.15625 446.109375 417.933594 446.542969 417.753906 C 446.980469 417.574219 447.425781 417.4375 447.890625 417.347656 C 448.351562 417.253906 448.816406 417.207031 449.289062 417.207031 C 449.757812 417.207031 450.226562 417.253906 450.6875 417.347656 C 451.148438 417.4375 451.597656 417.574219 452.03125 417.753906 C 452.46875 417.933594 452.882812 418.15625 453.273438 418.417969 C 453.664062 418.679688 454.027344 418.976562 454.359375 419.308594 C 454.691406 419.640625 454.988281 420.003906 455.25 420.394531 C 455.511719 420.789062 455.734375 421.203125 455.914062 421.636719 C 456.09375 422.070312 456.230469 422.519531 456.324219 422.980469 C 456.414062 423.445312 456.460938 423.910156 456.460938 424.382812 L 456.460938 753.570312 L 512.296875 753.570312 C 512.769531 753.570312 513.234375 753.613281 513.699219 753.707031 C 514.160156 753.796875 514.609375 753.933594 515.046875 754.113281 C 515.484375 754.292969 515.898438 754.511719 516.289062 754.773438 C 516.683594 755.035156 517.046875 755.332031 517.382812 755.664062 C 517.714844 756 518.011719 756.359375 518.277344 756.753906 C 518.539062 757.144531 518.761719 757.558594 518.941406 757.996094 C 519.121094 758.429688 519.257812 758.878906 519.351562 759.34375 C 519.441406 759.804688 519.488281 760.273438 519.488281 760.742188 C 519.488281 761.214844 519.441406 761.683594 519.351562 762.144531 C 519.257812 762.609375 519.121094 763.058594 518.941406 763.492188 C 518.761719 763.929688 518.539062 764.34375 518.277344 764.734375 C 518.011719 765.125 517.714844 765.488281 517.382812 765.820312 C 517.046875 766.15625 516.683594 766.453125 516.289062 766.714844 C 515.898438 766.976562 515.484375 767.195312 515.046875 767.375 C 514.609375 767.554688 514.160156 767.691406 513.699219 767.78125 C 513.234375 767.871094 512.769531 767.917969 512.296875 767.914062 Z M 512.296875 767.914062 " fill-opacity="1" fill-rule="nonzero"/><path fill="#000000" d="M 577.699219 375.34375 C 577.027344 375.34375 576.363281 375.25 575.714844 375.0625 C 575.070312 374.875 574.457031 374.605469 573.886719 374.246094 C 573.316406 373.886719 572.804688 373.457031 572.355469 372.953125 C 571.90625 372.453125 571.535156 371.894531 571.242188 371.289062 C 570.949219 370.679688 570.746094 370.046875 570.632812 369.378906 C 570.519531 368.714844 570.5 368.046875 570.578125 367.378906 C 570.652344 366.707031 570.816406 366.0625 571.078125 365.4375 C 571.335938 364.816406 571.671875 364.238281 572.09375 363.710938 L 756.78125 130.921875 C 757.074219 130.554688 757.398438 130.21875 757.757812 129.914062 C 758.117188 129.609375 758.503906 129.34375 758.914062 129.113281 C 759.324219 128.886719 759.753906 128.699219 760.203125 128.554688 C 760.652344 128.410156 761.109375 128.3125 761.578125 128.257812 C 762.046875 128.207031 762.515625 128.199219 762.984375 128.238281 C 763.453125 128.277344 763.914062 128.359375 764.367188 128.488281 C 764.820312 128.617188 765.253906 128.789062 765.671875 129.003906 C 766.089844 129.222656 766.484375 129.476562 766.855469 129.765625 C 767.222656 130.058594 767.558594 130.386719 767.863281 130.746094 C 768.167969 131.105469 768.433594 131.488281 768.664062 131.902344 C 768.894531 132.3125 769.078125 132.742188 769.222656 133.191406 C 769.367188 133.636719 769.464844 134.097656 769.519531 134.5625 C 769.574219 135.03125 769.582031 135.5 769.542969 135.96875 C 769.503906 136.4375 769.421875 136.898438 769.292969 137.351562 C 769.164062 137.804688 768.992188 138.242188 768.777344 138.660156 C 768.5625 139.078125 768.308594 139.472656 768.015625 139.839844 L 583.320312 372.628906 C 582.640625 373.488281 581.804688 374.15625 580.820312 374.632812 C 579.835938 375.105469 578.796875 375.34375 577.699219 375.34375 Z M 577.699219 375.34375 " fill-opacity="1" fill-rule="nonzero"/><path fill="#000000" d="M 192.6875 375.34375 C 191.589844 375.34375 190.550781 375.105469 189.566406 374.632812 C 188.578125 374.15625 187.746094 373.488281 187.066406 372.628906 L 2.375 139.839844 C 2.085938 139.472656 1.839844 139.078125 1.628906 138.660156 C 1.417969 138.242188 1.25 137.808594 1.125 137.355469 C 1 136.90625 0.921875 136.449219 0.886719 135.980469 C 0.851562 135.515625 0.859375 135.050781 0.917969 134.585938 C 0.972656 134.121094 1.074219 133.664062 1.21875 133.222656 C 1.363281 132.777344 1.550781 132.351562 1.777344 131.941406 C 2.003906 131.535156 2.269531 131.152344 2.574219 130.792969 C 2.878906 130.4375 3.210938 130.113281 3.578125 129.824219 C 3.945312 129.535156 4.335938 129.28125 4.75 129.066406 C 5.167969 128.851562 5.601562 128.679688 6.050781 128.550781 C 6.5 128.421875 6.957031 128.335938 7.421875 128.296875 C 7.886719 128.253906 8.355469 128.261719 8.820312 128.3125 C 9.285156 128.363281 9.738281 128.457031 10.1875 128.597656 C 10.632812 128.738281 11.058594 128.921875 11.472656 129.144531 C 11.882812 129.367188 12.265625 129.628906 12.625 129.929688 C 12.984375 130.226562 13.3125 130.558594 13.609375 130.921875 L 198.304688 363.710938 C 198.726562 364.238281 199.066406 364.816406 199.324219 365.4375 C 199.582031 366.0625 199.746094 366.707031 199.824219 367.378906 C 199.898438 368.046875 199.878906 368.714844 199.765625 369.378906 C 199.652344 370.046875 199.449219 370.679688 199.15625 371.289062 C 198.863281 371.894531 198.492188 372.453125 198.042969 372.953125 C 197.59375 373.457031 197.082031 373.886719 196.511719 374.246094 C 195.941406 374.605469 195.332031 374.875 194.683594 375.0625 C 194.035156 375.25 193.375 375.34375 192.699219 375.34375 Z M 192.6875 375.34375 " fill-opacity="1" fill-rule="nonzero"/><path fill="#43bea9" d="M 349.25 20.816406 L 58.824219 527.011719 C 58.375 527.796875 57.949219 528.59375 57.554688 529.402344 C 57.15625 530.214844 56.785156 531.039062 56.441406 531.875 C 56.097656 532.707031 55.78125 533.554688 55.496094 534.410156 C 55.207031 535.265625 54.945312 536.132812 54.714844 537.003906 C 54.484375 537.875 54.28125 538.757812 54.105469 539.644531 C 53.929688 540.527344 53.785156 541.421875 53.671875 542.316406 C 53.554688 543.210938 53.46875 544.109375 53.410156 545.011719 C 53.355469 545.914062 53.324219 546.816406 53.328125 547.71875 C 53.328125 548.621094 53.359375 549.523438 53.421875 550.425781 C 53.484375 551.324219 53.574219 552.222656 53.691406 553.121094 C 53.8125 554.015625 53.960938 554.90625 54.136719 555.789062 C 54.316406 556.675781 54.523438 557.554688 54.757812 558.425781 C 54.992188 559.296875 55.257812 560.164062 55.546875 561.015625 C 55.839844 561.871094 56.160156 562.714844 56.507812 563.550781 C 56.855469 564.382812 57.226562 565.207031 57.628906 566.015625 C 58.027344 566.824219 58.457031 567.621094 58.90625 568.402344 C 59.359375 569.183594 59.839844 569.949219 60.339844 570.699219 C 60.84375 571.449219 61.371094 572.183594 61.921875 572.898438 C 62.472656 573.613281 63.046875 574.3125 63.640625 574.992188 C 64.238281 575.667969 64.855469 576.328125 65.496094 576.964844 C 66.132812 577.601562 66.792969 578.21875 67.472656 578.8125 C 68.152344 579.410156 68.851562 579.980469 69.570312 580.53125 C 70.285156 581.078125 71.019531 581.605469 71.769531 582.105469 C 72.523438 582.605469 73.289062 583.082031 74.070312 583.535156 C 74.855469 583.984375 75.652344 584.410156 76.460938 584.808594 C 77.269531 585.207031 78.09375 585.582031 78.929688 585.925781 C 79.761719 586.269531 80.609375 586.589844 81.464844 586.878906 C 82.320312 587.167969 83.183594 587.429688 84.054688 587.664062 C 84.929688 587.898438 85.808594 588.101562 86.691406 588.277344 C 87.578125 588.453125 88.46875 588.601562 89.363281 588.71875 C 90.261719 588.835938 91.160156 588.925781 92.058594 588.984375 C 92.960938 589.042969 93.863281 589.070312 94.765625 589.070312 L 675.617188 589.070312 C 676.523438 589.070312 677.425781 589.042969 678.324219 588.984375 C 679.226562 588.925781 680.125 588.835938 681.019531 588.71875 C 681.914062 588.601562 682.808594 588.453125 683.691406 588.277344 C 684.578125 588.101562 685.457031 587.898438 686.332031 587.664062 C 687.203125 587.429688 688.066406 587.167969 688.921875 586.878906 C 689.777344 586.589844 690.621094 586.269531 691.457031 585.925781 C 692.292969 585.582031 693.113281 585.207031 693.925781 584.808594 C 694.734375 584.410156 695.53125 583.984375 696.3125 583.535156 C 697.097656 583.082031 697.863281 582.609375 698.613281 582.105469 C 699.367188 581.605469 700.101562 581.078125 700.816406 580.53125 C 701.535156 579.980469 702.234375 579.410156 702.914062 578.816406 C 703.59375 578.21875 704.25 577.601562 704.890625 576.964844 C 705.53125 576.328125 706.148438 575.667969 706.742188 574.992188 C 707.339844 574.3125 707.914062 573.613281 708.464844 572.898438 C 709.015625 572.183594 709.542969 571.449219 710.042969 570.699219 C 710.546875 569.949219 711.023438 569.183594 711.476562 568.402344 C 711.929688 567.621094 712.355469 566.824219 712.757812 566.015625 C 713.160156 565.207031 713.53125 564.382812 713.878906 563.550781 C 714.226562 562.714844 714.546875 561.871094 714.835938 561.015625 C 715.128906 560.164062 715.390625 559.300781 715.628906 558.425781 C 715.863281 557.554688 716.070312 556.675781 716.246094 555.789062 C 716.425781 554.90625 716.574219 554.015625 716.691406 553.121094 C 716.8125 552.222656 716.902344 551.324219 716.964844 550.425781 C 717.023438 549.523438 717.054688 548.621094 717.058594 547.71875 C 717.058594 546.816406 717.03125 545.914062 716.972656 545.011719 C 716.917969 544.109375 716.832031 543.210938 716.714844 542.316406 C 716.597656 541.417969 716.453125 540.527344 716.277344 539.644531 C 716.105469 538.757812 715.902344 537.875 715.671875 537.003906 C 715.4375 536.132812 715.179688 535.265625 714.890625 534.410156 C 714.601562 533.554688 714.285156 532.707031 713.941406 531.875 C 713.597656 531.039062 713.230469 530.214844 712.832031 529.402344 C 712.433594 528.59375 712.011719 527.796875 711.5625 527.011719 L 421.132812 20.816406 C 420.230469 19.242188 419.226562 17.730469 418.128906 16.289062 C 417.027344 14.84375 415.835938 13.480469 414.554688 12.195312 C 413.273438 10.90625 411.914062 9.710938 410.476562 8.601562 C 409.035156 7.492188 407.53125 6.484375 405.960938 5.574219 C 404.390625 4.664062 402.765625 3.859375 401.089844 3.164062 C 399.414062 2.46875 397.699219 1.882812 395.945312 1.414062 C 394.191406 0.941406 392.414062 0.585938 390.613281 0.347656 C 388.816406 0.109375 387.007812 -0.0078125 385.191406 -0.0078125 C 383.375 -0.0078125 381.570312 0.109375 379.769531 0.347656 C 377.96875 0.585938 376.191406 0.941406 374.4375 1.414062 C 372.6875 1.882812 370.972656 2.46875 369.292969 3.164062 C 367.617188 3.859375 365.992188 4.664062 364.421875 5.574219 C 362.851562 6.484375 361.347656 7.492188 359.910156 8.601562 C 358.472656 9.710938 357.113281 10.90625 355.832031 12.195312 C 354.550781 13.480469 353.359375 14.84375 352.257812 16.289062 C 351.15625 17.730469 350.152344 19.242188 349.25 20.816406 Z M 349.25 20.816406 " fill-opacity="1" fill-rule="nonzero"/><path fill="#40b29c" d="M 169.554688 589.070312 L 131.125 589.070312 L 70.726562 506.195312 L 87.613281 476.773438 Z M 169.554688 589.070312 " fill-opacity="1" fill-rule="nonzero"/><path fill="#40b29c" d="M 335.210938 589.070312 L 276.15625 589.070312 C 223.839844 534.890625 169.175781 483.195312 112.164062 433.988281 L 127.90625 406.636719 C 160.957031 434.917969 193.3125 464.167969 224.976562 494.382812 C 197.007812 457.707031 168.832031 421.136719 140.445312 384.675781 L 157.230469 355.566406 C 217.316406 432.746094 276.644531 510.578125 335.210938 589.070312 Z M 335.210938 589.070312 " fill-opacity="1" fill-rule="nonzero"/><path fill="#40b29c" d="M 615.644531 589.070312 L 571.921875 589.070312 C 475.683594 491.484375 377.164062 392.550781 275.742188 297.238281 C 350.023438 392.136719 423.472656 489.203125 491.84375 589.070312 L 423.472656 589.070312 C 338.003906 508.472656 250.257812 428.082031 158.78125 352.871094 L 174.425781 325.515625 C 261.238281 396.695312 344.53125 472.3125 425.648438 548.457031 C 356.449219 451.179688 283.203125 356.59375 209.859375 263.878906 L 236.070312 218.1875 C 367.21875 337.953125 493.191406 464.859375 615.644531 589.070312 Z M 615.644531 589.070312 " fill-opacity="1" fill-rule="nonzero"/><path fill="#40b29c" d="M 496.195312 151.6875 C 439.011719 121.957031 380.410156 95.09375 320.394531 71.089844 L 336.035156 43.949219 C 380.789062 61.871094 424.78125 81.449219 468.015625 102.6875 Z M 496.195312 151.6875 " fill-opacity="1" fill-rule="nonzero"/><path fill="#40b29c" d="M 524.683594 201.414062 L 297.292969 111.492188 L 312.933594 84.246094 L 499.925781 158.109375 Z M 524.683594 201.414062 " fill-opacity="1" fill-rule="nonzero"/><path fill="#ffffff" d="M 498.230469 333.667969 C 498.230469 360.808594 479.996094 382.816406 457.503906 382.816406 C 435.015625 382.816406 416.78125 360.808594 416.78125 333.667969 C 416.78125 306.523438 435.015625 284.515625 457.503906 284.515625 C 479.996094 284.515625 498.230469 306.515625 498.230469 333.667969 Z M 498.230469 333.667969 " fill-opacity="1" fill-rule="nonzero"/><path fill="#000000" d="M 421.015625 312.019531 C 427.589844 295.714844 441.441406 284.496094 457.480469 284.496094 C 471.417969 284.496094 483.6875 292.910156 491.050781 305.796875 C 490.613281 323.066406 474.921875 336.914062 455.636719 336.914062 C 438.722656 336.914062 424.609375 326.308594 421.015625 312.019531 Z M 421.015625 312.019531 " fill-opacity="1" fill-rule="nonzero"/><path fill="#ffffff" d="M 353.605469 333.667969 C 353.605469 360.808594 335.371094 382.816406 312.878906 382.816406 C 290.386719 382.816406 272.15625 360.808594 272.15625 333.667969 C 272.15625 306.523438 290.386719 284.515625 312.878906 284.515625 C 335.367188 284.515625 353.605469 306.515625 353.605469 333.667969 Z M 353.605469 333.667969 " fill-opacity="1" fill-rule="nonzero"/><path fill="#000000" d="M 276.390625 312.019531 C 282.964844 295.714844 296.8125 284.496094 312.855469 284.496094 C 326.792969 284.496094 339.0625 292.910156 346.425781 305.796875 C 345.988281 323.066406 330.296875 336.914062 311.015625 336.914062 C 294.09375 336.914062 279.984375 326.308594 276.390625 312.019531 Z M 276.390625 312.019531 " fill-opacity="1" fill-rule="nonzero"/><path fill="#fc6d7b" d="M 530.195312 406.226562 C 530.195312 415.242188 519.515625 422.550781 506.339844 422.550781 C 493.164062 422.550781 482.484375 415.242188 482.484375 406.226562 C 482.484375 397.214844 493.167969 389.90625 506.339844 389.90625 C 519.515625 389.90625 530.195312 397.214844 530.195312 406.226562 Z M 530.195312 406.226562 " fill-opacity="1" fill-rule="nonzero"/><path fill="#fc6d7b" d="M 287.898438 406.226562 C 287.898438 415.242188 277.21875 422.550781 264.042969 422.550781 C 250.867188 422.550781 240.191406 415.242188 240.191406 406.226562 C 240.191406 397.214844 250.871094 389.90625 264.042969 389.90625 C 277.214844 389.90625 287.898438 397.214844 287.898438 406.226562 Z M 287.898438 406.226562 " fill-opacity="1" fill-rule="nonzero"/><path fill="#000000" d="M 412.128906 430.570312 C 412.128906 443.15625 400.066406 453.359375 385.183594 453.359375 C 370.300781 453.359375 358.261719 443.15625 358.261719 430.570312 C 358.261719 417.984375 370.320312 407.777344 385.195312 407.777344 C 400.070312 407.777344 412.128906 417.980469 412.128906 430.570312 Z M 412.128906 430.570312 " fill-opacity="1" fill-rule="nonzero"/><path fill="#000000" d="M 330.175781 173.625 C 319.933594 173.625 311.195312 164.660156 308.871094 154.835938 C 306.425781 144.5 309.5625 134.011719 312.089844 125.574219 C 312.179688 125.273438 312.296875 124.980469 312.441406 124.703125 C 312.589844 124.421875 312.761719 124.160156 312.957031 123.914062 C 313.15625 123.671875 313.375 123.445312 313.617188 123.246094 C 313.859375 123.042969 314.121094 122.867188 314.398438 122.714844 C 314.675781 122.566406 314.964844 122.445312 315.265625 122.351562 C 315.566406 122.257812 315.875 122.195312 316.1875 122.160156 C 316.5 122.128906 316.816406 122.128906 317.128906 122.15625 C 317.441406 122.1875 317.75 122.246094 318.054688 122.339844 C 318.355469 122.429688 318.644531 122.546875 318.925781 122.695312 C 319.203125 122.84375 319.464844 123.019531 319.707031 123.21875 C 319.953125 123.417969 320.175781 123.640625 320.375 123.882812 C 320.574219 124.125 320.75 124.386719 320.898438 124.664062 C 321.046875 124.945312 321.164062 125.234375 321.257812 125.535156 C 321.347656 125.835938 321.410156 126.144531 321.4375 126.460938 C 321.46875 126.773438 321.46875 127.085938 321.4375 127.402344 C 321.40625 127.714844 321.34375 128.023438 321.25 128.324219 C 318.941406 136.039062 316.320312 144.789062 318.175781 152.632812 C 319.710938 159.109375 326.027344 165.304688 332.066406 163.835938 C 335.4375 163.042969 338.683594 160.042969 341.984375 154.664062 C 344.160156 151.113281 346.019531 147.40625 347.570312 143.539062 C 349.117188 139.675781 350.328125 135.707031 351.203125 131.636719 C 352.082031 127.566406 352.609375 123.453125 352.789062 119.292969 C 352.972656 115.132812 352.800781 110.988281 352.28125 106.855469 C 352.21875 106.355469 352.234375 105.859375 352.328125 105.367188 C 352.421875 104.871094 352.589844 104.402344 352.832031 103.960938 C 353.074219 103.519531 353.378906 103.125 353.746094 102.78125 C 354.109375 102.4375 354.519531 102.15625 354.976562 101.941406 C 355.429688 101.722656 355.90625 101.582031 356.40625 101.519531 C 356.90625 101.453125 357.402344 101.464844 357.898438 101.558594 C 358.394531 101.652344 358.863281 101.816406 359.304688 102.054688 C 359.746094 102.296875 360.140625 102.597656 360.488281 102.960938 C 371.082031 114.105469 383.085938 126.730469 397.941406 132.671875 C 402.40625 134.683594 407.078125 135.496094 411.960938 135.105469 C 412.988281 135.023438 413.996094 134.824219 414.980469 134.515625 C 415.964844 134.207031 416.902344 133.792969 417.792969 133.273438 C 418.683594 132.753906 419.507812 132.140625 420.261719 131.4375 C 421.015625 130.734375 421.679688 129.957031 422.261719 129.101562 C 424.191406 125.84375 424.496094 121.160156 423.195312 114.785156 C 420.652344 102.402344 414.667969 90.675781 408.878906 79.339844 C 408.632812 78.855469 408.472656 78.34375 408.398438 77.808594 C 408.328125 77.269531 408.34375 76.738281 408.453125 76.207031 C 408.5625 75.675781 408.757812 75.175781 409.035156 74.710938 C 409.3125 74.246094 409.660156 73.839844 410.078125 73.492188 C 410.492188 73.144531 410.953125 72.878906 411.460938 72.6875 C 411.96875 72.496094 412.496094 72.398438 413.035156 72.386719 C 413.578125 72.375 414.109375 72.453125 414.621094 72.621094 C 415.136719 72.789062 415.609375 73.035156 416.042969 73.367188 C 436.71875 89.222656 455.601562 102.382812 477.292969 102.746094 C 481.332031 102.886719 491.261719 102.261719 495.527344 95.640625 C 498.449219 91.105469 498.261719 84.3125 494.980469 75.445312 C 493.851562 72.460938 492.570312 69.539062 491.140625 66.6875 C 489.710938 63.832031 488.136719 61.058594 486.417969 58.367188 C 484.703125 55.675781 482.851562 53.082031 480.863281 50.582031 C 478.878906 48.082031 476.769531 45.691406 474.539062 43.410156 C 472.304688 41.128906 469.960938 38.96875 467.507812 36.929688 C 465.050781 34.886719 462.496094 32.980469 459.84375 31.203125 C 457.191406 29.429688 454.453125 27.796875 451.632812 26.300781 C 448.808594 24.808594 445.917969 23.464844 442.957031 22.273438 C 442.671875 22.152344 442.398438 22.007812 442.140625 21.835938 C 441.882812 21.664062 441.644531 21.46875 441.421875 21.25 C 441.203125 21.027344 441.003906 20.792969 440.832031 20.535156 C 440.65625 20.277344 440.511719 20.003906 440.390625 19.71875 C 440.269531 19.433594 440.175781 19.136719 440.113281 18.832031 C 440.050781 18.53125 440.015625 18.222656 440.011719 17.910156 C 440.007812 17.601562 440.035156 17.292969 440.089844 16.988281 C 440.148438 16.683594 440.234375 16.386719 440.347656 16.097656 C 440.460938 15.808594 440.601562 15.53125 440.769531 15.269531 C 440.9375 15.011719 441.128906 14.769531 441.347656 14.542969 C 441.5625 14.320312 441.796875 14.117188 442.050781 13.941406 C 442.304688 13.761719 442.574219 13.609375 442.859375 13.484375 C 443.140625 13.359375 443.433594 13.261719 443.738281 13.191406 C 444.039062 13.125 444.347656 13.085938 444.65625 13.078125 C 444.96875 13.066406 445.277344 13.089844 445.582031 13.140625 C 445.890625 13.191406 446.1875 13.273438 446.480469 13.382812 C 449.75 14.699219 452.941406 16.183594 456.0625 17.832031 C 459.179688 19.480469 462.203125 21.289062 465.132812 23.25 C 468.0625 25.210938 470.886719 27.316406 473.597656 29.570312 C 476.3125 31.824219 478.902344 34.210938 481.367188 36.730469 C 483.832031 39.25 486.164062 41.890625 488.355469 44.652344 C 490.550781 47.414062 492.59375 50.28125 494.492188 53.253906 C 496.390625 56.226562 498.128906 59.289062 499.707031 62.441406 C 501.289062 65.59375 502.703125 68.820312 503.949219 72.121094 C 508.335938 83.964844 508.210938 93.621094 503.570312 100.816406 C 498.742188 108.316406 488.898438 112.554688 477.136719 112.3125 C 457.960938 111.988281 440.511719 102.625 425.894531 92.539062 C 428.824219 99.078125 431.042969 105.851562 432.554688 112.859375 C 434.359375 121.671875 433.683594 128.582031 430.484375 133.972656 C 429.535156 135.464844 428.429688 136.828125 427.167969 138.066406 C 425.90625 139.304688 424.519531 140.382812 423.011719 141.304688 C 421.5 142.226562 419.90625 142.964844 418.230469 143.519531 C 416.550781 144.078125 414.832031 144.4375 413.070312 144.597656 C 409.882812 144.886719 406.707031 144.773438 403.542969 144.257812 C 400.382812 143.738281 397.335938 142.835938 394.402344 141.546875 C 381.824219 136.515625 371.507812 127.726562 362.390625 118.652344 C 362.164062 125.902344 361.015625 133.003906 358.941406 139.957031 C 356.863281 146.910156 353.929688 153.476562 350.140625 159.664062 C 345.433594 167.320312 340.242188 171.734375 334.265625 173.144531 C 332.921875 173.460938 331.558594 173.621094 330.175781 173.625 Z M 330.175781 173.625 " fill-opacity="1" fill-rule="nonzero"/></svg>